<svg width="19" height="18" viewBox="0 0 19 18" fill="none" xmlns="http://www.w3.org/2000/svg"><path fill-rule="evenodd" clip-rule="evenodd" d="M4.1 1.8a2 2 0 0 0-.4 0 4 4 0 0 0-.8-1C2.4.1 1.6 0 .5 0v1.8c.7 0 1 .1 1.1.2.4.3.7 1 .7 1.6v.1l.9 6.2a2.8 2.8 0 0 0-2.7 2.7v.9c0 1.5 1.2 2.6 2.6 2.7h.2a2.7 2.7 0 0 0 5 0h2.2a2.7 2.7 0 0 0 5.2-.9 2.7 2.7 0 0 0-5.2-.9H8.4a2.7 2.7 0 0 0-5 0h-.2c-.5 0-1-.4-1-1v-.8c0-.5.5-.9 1-.9h10.9c.7-.3 1.3-.8 1.5-1.4l.1-.2.3-.6a1237 1237 0 0 0 2.3-4.6c.5-1.2-.6-2.2-1.7-2.2L4.1 1.8Zm9.6 8.1H5.1l-.2-.1-.8-6.2 12.4.9-1.1 2.3-1 1.9-.3.6-.1.2v.1l-.3.3Zm-.7 6.3c.5 0 1-.4 1-.9s-.5-.9-1-.9-.9.4-.9.9.4.9 1 .9Zm-6.3-.9a.9.9 0 1 1-1.7 0 .9.9 0 1 1 1.7 0Z" fill="#fff" opacity=".6"/></svg>