<svg width="24" height="23" viewBox="0 0 24 23" fill="none" xmlns="http://www.w3.org/2000/svg"><path fill="#fff" d="M2.4 2.3h18v19.1h-18z"/><path d="M21.1 0H3C1.3 0 0 1.2 0 2.7v17.1c0 1.5 1.3 2.7 2.9 2.7H21c1.6 0 2.9-1.2 2.9-2.7V2.7C24 1.2 22.7 0 21.1 0ZM6.6 18l3-2.8c-1-.2-2-.6-2.8-1.2a1 1 0 0 1-.3-1.5c.2-.3.6-.4 1-.4l.6.1a7.1 7.1 0 0 0 7.8 0l.7-.2c.3 0 .7.2 1 .5a1 1 0 0 1-.4 1.5c-.8.6-1.8 1-2.8 1.2l3 2.8c.4.4.4 1 0 1.5a1.2 1.2 0 0 1-1.6 0L12 16l-3.8 3.5a1.2 1.2 0 0 1-1.6 0 1 1 0 0 1 0-1.5Zm5.4-6.8c-2.5 0-4.6-1.9-4.6-4.2 0-2.4 2-4.3 4.6-4.3 2.5 0 4.6 1.9 4.6 4.3 0 2.3-2 4.3-4.6 4.3Z" fill="#47556C"/><path d="M12 5.3a2 2 0 1 0 0 4 2 2 0 0 0 0-4Z" fill="#47556C"/></svg>