<svg width="94" height="92" viewBox="0 0 94 92" fill="none" xmlns="http://www.w3.org/2000/svg">
<g filter="url(#filter0_d_2298_673)">
<path d="M84.111 20.0278H80.7663L80.7696 14.0484C80.7715 10.034 77.5077 6.76632 73.4927 6.76436L48.108 6.75C48.1067 6.75 48.1061 6.75 48.1048 6.75C46.6599 6.75 45.3011 7.31257 44.2791 8.33459L6.38214 46.2315C5.00705 47.6066 4.25 49.4346 4.25 51.3795C4.25 53.3243 5.00705 55.1523 6.38214 56.5274L30.9759 81.1211C32.3953 82.5406 34.2599 83.25 36.1238 83.25C37.9884 83.25 39.8529 82.5406 41.2724 81.1211L65.1326 57.261C65.7852 56.6083 65.7852 55.5504 65.1326 54.8984C64.4799 54.2458 63.422 54.2458 62.7694 54.8984L38.9092 78.7586C37.3736 80.2942 34.8747 80.2942 33.339 78.7586L8.74532 54.1649C8.00132 53.4209 7.59147 52.4315 7.59147 51.3795C7.59147 50.3274 8.00132 49.338 8.74532 48.594L46.6416 10.6978C47.0325 10.3068 47.552 10.0915 48.1048 10.0915H48.1061L73.4908 10.1058C75.6627 10.1065 77.4294 11.8751 77.4281 14.0471L77.4203 28.0473H69.8948C69.2467 28.0473 68.66 27.7823 68.2358 27.3555C68.9348 27.0559 69.59 26.6232 70.1598 26.0535C72.5608 23.6518 72.5608 19.7452 70.1598 17.3441C67.7581 14.9425 63.8514 14.9425 61.4498 17.3441C59.0487 19.7452 59.0487 23.6518 61.4498 26.0535C62.34 26.9437 63.4377 27.503 64.5883 27.7334C65.406 29.8681 67.4755 31.3887 69.8948 31.3887H77.4183L77.4138 39.3978C77.4138 39.9506 77.1984 40.4694 76.8075 40.8597L72.2208 45.4471C71.5681 46.0997 71.5681 47.1576 72.2208 47.8102C72.8728 48.4622 73.9307 48.4622 74.5833 47.8102L79.1706 43.2229C80.1913 42.2015 80.7546 40.844 80.7552 39.3998L80.7598 31.3887H84.111C87.243 31.3887 89.7915 28.8409 89.7915 25.7083C89.7915 22.5763 87.243 20.0278 84.111 20.0278V20.0278ZM63.8129 19.7067C64.3625 19.1572 65.0836 18.883 65.8054 18.883C66.5266 18.883 67.2477 19.1578 67.7972 19.7067C67.9708 19.8809 68.1144 20.0734 68.2332 20.2764C66.3993 20.8383 64.9583 22.3061 64.4316 24.1556C64.2104 24.0323 64.0009 23.8789 63.8129 23.691C62.7146 22.5919 62.7146 20.805 63.8129 19.7067V19.7067ZM84.111 28.0473H80.7617L80.7644 23.3692H84.111C85.4006 23.3692 86.4501 24.4187 86.4501 25.7083C86.4501 26.9978 85.4006 28.0473 84.111 28.0473Z" fill="#CA2C37"/>
<path d="M31.2179 48.9034C31.4235 49.6428 32.0951 50.1264 32.826 50.1264C32.9748 50.1264 33.1256 50.1068 33.275 50.0651L50.4261 45.2911C51.315 45.0437 51.8352 44.1222 51.5878 43.2333C51.3405 42.3451 50.4196 41.825 49.5301 42.0723L32.379 46.8457C31.4907 47.0937 30.9706 48.0145 31.2179 48.9034V48.9034Z" fill="#CA2C37"/>
<path d="M38.7676 51.1079C37.8369 52.0386 37.3246 53.2753 37.3246 54.5917C37.3246 55.9074 37.8369 57.1441 38.7676 58.0748C39.7283 59.0348 40.9891 59.5151 42.2507 59.5151C43.5122 59.5151 44.7737 59.0348 45.7344 58.0748C47.6551 56.1541 47.6551 53.0286 45.7344 51.1079C43.8137 49.1872 40.6883 49.1872 38.7676 51.1079ZM43.3712 55.7116C42.7532 56.3296 41.7481 56.3296 41.1301 55.7116C40.8305 55.4127 40.6661 55.0146 40.6661 54.591C40.6661 54.1681 40.8312 53.77 41.1301 53.4705C41.4394 53.1618 41.8454 53.0071 42.2507 53.0071C42.6566 53.0071 43.0625 53.1618 43.3712 53.4705C43.9893 54.0885 43.9893 55.0942 43.3712 55.7116Z" fill="#CA2C37"/>
<path d="M46.562 41.1606C48.4827 39.2392 48.4827 36.1144 46.562 34.1938C45.6314 33.2631 44.394 32.7508 43.0783 32.7508C41.7626 32.7508 40.5252 33.2631 39.5952 34.1938C37.6745 36.1144 37.6745 39.2392 39.5952 41.1606C40.5559 42.1206 41.8168 42.6009 43.0783 42.6009C44.3398 42.6009 45.6014 42.1206 46.562 41.1606ZM41.9577 36.5563C42.2573 36.2567 42.6554 36.0923 43.0783 36.0923C43.5019 36.0923 43.9 36.2567 44.1989 36.5563C44.8169 37.1743 44.8169 38.1794 44.1989 38.7974C43.5815 39.4155 42.5758 39.4155 41.9577 38.7974C41.3403 38.1794 41.3403 37.1743 41.9577 36.5563Z" fill="#CA2C37"/>
<path d="M20.8673 45.451C20.2147 44.7984 19.1568 44.7984 18.5042 45.451L13.7569 50.1982C13.4437 50.5115 13.2675 50.9363 13.2675 51.3795C13.2675 51.8226 13.4437 52.2475 13.7569 52.5607L34.9433 73.7471C35.2689 74.0727 35.697 74.2359 36.1245 74.2359C36.552 74.2359 36.9795 74.0727 37.3058 73.7471L68.9818 42.0704C69.6345 41.4177 69.6345 40.3598 68.9818 39.7072L47.7962 18.5215C47.4829 18.2083 47.058 18.032 46.6149 18.032C46.1718 18.032 45.7469 18.2083 45.4336 18.5215L27.9555 35.9996C27.3029 36.6522 27.3029 37.7101 27.9555 38.3628C28.6075 39.0148 29.6654 39.0148 30.3181 38.3628L46.6149 22.0659L65.4381 40.8891L36.1245 70.2026L17.3014 51.3795L20.8673 47.8135C21.5193 47.1609 21.52 46.1036 20.8673 45.451V45.451Z" fill="#CA2C37"/>
<path d="M68.677 49.6833C68.2371 49.6833 67.8064 49.8621 67.4957 50.1728C67.1851 50.4834 67.0063 50.9148 67.0063 51.354C67.0063 51.7932 67.1851 52.2246 67.4957 52.5353C67.8064 52.8459 68.2371 53.0248 68.677 53.0248C69.1162 53.0248 69.5469 52.8459 69.8583 52.5353C70.1689 52.2246 70.3477 51.7932 70.3477 51.354C70.3477 50.9148 70.1689 50.4834 69.8583 50.1728C69.5469 49.8621 69.1162 49.6833 68.677 49.6833Z" fill="#CA2C37"/>
<path d="M25.5916 43.0872C25.9042 42.7765 26.0818 42.3471 26.0818 41.9059C26.0818 41.4667 25.9042 41.0373 25.5916 40.7246C25.281 40.414 24.8516 40.2352 24.411 40.2352C23.9712 40.2352 23.5404 40.414 23.2298 40.7246C22.9185 41.0353 22.7403 41.4667 22.7403 41.9059C22.7403 42.3471 22.9185 42.7765 23.2298 43.0872C23.5417 43.3998 23.9712 43.5766 24.411 43.5766C24.8516 43.5766 25.281 43.3998 25.5916 43.0872Z" fill="#CA2C37"/>
</g>
<defs>
<filter id="filter0_d_2298_673" x="-2" y="0" width="98" height="98" filterUnits="userSpaceOnUse" color-interpolation-filters="sRGB">
<feFlood flood-opacity="0" result="BackgroundImageFix"/>
<feColorMatrix in="SourceAlpha" type="matrix" values="0 0 0 0 0 0 0 0 0 0 0 0 0 0 0 0 0 0 127 0" result="hardAlpha"/>
<feOffset dy="4"/>
<feGaussianBlur stdDeviation="2"/>
<feComposite in2="hardAlpha" operator="out"/>
<feColorMatrix type="matrix" values="0 0 0 0 0 0 0 0 0 0 0 0 0 0 0 0 0 0 0.25 0"/>
<feBlend mode="normal" in2="BackgroundImageFix" result="effect1_dropShadow_2298_673"/>
<feBlend mode="normal" in="SourceGraphic" in2="effect1_dropShadow_2298_673" result="shape"/>
</filter>
</defs>
</svg>
