<svg width="20" height="20" viewBox="0 0 20 20" fill="none" xmlns="http://www.w3.org/2000/svg"><path d="M11.8 12.7c.6-.2 1.4 1.3 2.3 2 .6.4 1.1.3 1.1.3h2.4s1.2-.1.6-1c0-.2-.3-.8-1.7-2-1.5-1.5-1.3-1.2.5-3.6 1-1.4 1.4-2.3 1.3-2.7-.1-.3-.9-.2-.9-.2h-2.6c-.3 0-.5 0-.6.3 0 0-.4 1.1-1 2-1.1 2-1.6 2.2-1.8 2-.4-.2-.3-1.1-.3-1.7 0-2 .3-2.8-.5-3L9.3 5c-.9 0-1.7 0-2.1.2-.3.2-.6.5-.4.5.2 0 .5.1.8.4.2.4.2 1.2.2 1.2s.2 2.3-.3 2.6c-.4.1-.9-.2-2-2l-.8-2-.3-.3a1 1 0 0 0-.4-.2H1.6s-.4 0-.5.2c-.2.2 0 .5 0 .5S3 10.7 5 13c2.1 2.1 4.4 2 4.4 2h1s.3 0 .5-.3l.1-.4s0-1.4.7-1.6Z" fill="#fff"/></svg>